<svg width="16" height="16" viewBox="0 0 16 16" fill="none" xmlns="http://www.w3.org/2000/svg">
<rect width="16" height="16" rx="8" fill="#0066DC"/>
<path d="M8.78564 7.14279C8.78564 6.6694 9.1694 6.28564 9.64279 6.28564C10.1162 6.28564 10.4999 6.6694 10.4999 7.14279V12.2856H8.78564V7.14279Z" fill="white"/>
<path d="M9.64289 14L7.92861 12.2857L11.3572 12.2857L9.64289 14Z" fill="white"/>
<path d="M10.5 10.4584H10.0863L9.42188 9.62784C9.25891 9.75968 9.0855 9.88398 8.90164 10.0008C8.72196 10.1138 8.53183 10.2136 8.33125 10.3002C8.13068 10.3831 7.92384 10.449 7.71073 10.498C7.50179 10.5469 7.28868 10.5714 7.07139 10.5714C6.59921 10.5714 6.15418 10.4923 5.73632 10.3341C5.32263 10.1721 4.95909 9.9499 4.6457 9.66739C4.33648 9.38111 4.09203 9.04398 3.91234 8.65599C3.73266 8.26424 3.64282 7.83859 3.64282 7.37904C3.64282 6.92325 3.73266 6.49948 3.91234 6.10773C4.09203 5.71598 4.33648 5.37697 4.6457 5.09069C4.95909 4.80441 5.32263 4.58028 5.73632 4.41831C6.15418 4.25633 6.59921 4.17535 7.07139 4.17535C7.22182 4.17535 7.37643 4.18665 7.53522 4.20925C7.69819 4.23185 7.85489 4.26952 8.00532 4.32225C8.15993 4.37122 8.30409 4.43714 8.43781 4.52001C8.57152 4.60288 8.68435 4.70459 8.77628 4.82512V2H10.5V10.4584ZM8.77628 7.37904C8.77628 7.16809 8.73031 6.96469 8.63838 6.76881C8.55063 6.56917 8.42945 6.39401 8.27484 6.24334C8.12023 6.0889 7.93846 5.96648 7.72953 5.87607C7.52478 5.7819 7.3054 5.73481 7.07139 5.73481C6.83739 5.73481 6.61592 5.77248 6.40699 5.84782C6.20224 5.92316 6.02256 6.03239 5.86795 6.17553C5.71752 6.31491 5.59842 6.4863 5.51067 6.68971C5.42292 6.89312 5.37905 7.12289 5.37905 7.37904C5.37905 7.60128 5.42292 7.81222 5.51067 8.01187C5.59842 8.21151 5.71752 8.38667 5.86795 8.53734C6.02256 8.68801 6.20224 8.80667 6.40699 8.8933C6.61592 8.97994 6.83739 9.02326 7.07139 9.02326C7.3054 9.02326 7.52478 8.97806 7.72953 8.88765C7.93846 8.79348 8.12023 8.67106 8.27484 8.52039C8.42945 8.36595 8.55063 8.19079 8.63838 7.99491C8.73031 7.79527 8.77628 7.58998 8.77628 7.37904Z" fill="white"/>
</svg>
