<svg width="16" height="16" viewBox="0 0 16 16" fill="none" xmlns="http://www.w3.org/2000/svg">
<rect width="16" height="16" rx="8" fill="#2F80ED"/>
<path d="M10.839 7.1332L11.15 5.48165H9.20478V4.40993C9.20478 3.95803 9.47651 3.51764 10.3478 3.51764H11.2322V2.11159C11.2322 2.11159 10.4295 2 9.66215 2C8.06012 2 7.013 2.79096 7.013 4.2229V5.48165H5.23218V7.1332H7.013V11.0015H5.23218C6.23218 12.002 7.73218 13.5027 8.23218 14C9.23218 13.0024 10.2322 11.5017 10.9856 11.0015H9.20478V7.1332H10.839Z" fill="white"/>
<path d="M8.23218 14L4.76808 11L11.2322 11L8.23218 14Z" fill="white"/>
</svg>
