<svg width="17" height="17" viewBox="0 0 17 17" fill="none" xmlns="http://www.w3.org/2000/svg">
<rect x="0.231934" y="0.5" width="16" height="16" rx="8" fill="#EB5757"/>
<g clip-path="url(#clip0_957_7243)">
<path d="M8.23193 10.5C8.76237 10.5 9.27107 10.2893 9.64615 9.91421C10.0212 9.53914 10.2319 9.03043 10.2319 8.5C10.2319 7.96957 10.0212 7.46086 9.64615 7.08579C9.27107 6.71071 8.76237 6.5 8.23193 6.5C7.7015 6.5 7.19279 6.71071 6.81772 7.08579C6.44265 7.46086 6.23193 7.96957 6.23193 8.5C6.23193 9.03043 6.44265 9.53914 6.81772 9.91421C7.19279 10.2893 7.7015 10.5 8.23193 10.5Z" stroke="white" stroke-linecap="round" stroke-linejoin="round"/>
<path d="M12.7319 10.5V6.5C12.7319 5.83696 12.4685 5.20107 11.9997 4.73223C11.5309 4.26339 10.895 4 10.2319 4H6.23193C5.56889 4 4.93301 4.26339 4.46417 4.73223C3.99533 5.20107 3.73193 5.83696 3.73193 6.5V10.5C3.73193 11.163 3.99533 11.7989 4.46417 12.2678C4.93301 12.7366 5.56889 13 6.23193 13H10.2319" stroke="white"/>
<path d="M10.9819 5.75609L10.9884 5.74902" stroke="white" stroke-linecap="round" stroke-linejoin="round"/>
<path d="M12.7319 12.1797L11.3806 10.4211L14.0832 10.4211L12.7319 12.1797Z" fill="white"/>
</g>
<defs>
<clipPath id="clip0_957_7243">
<rect width="12" height="12" fill="white" transform="translate(2.23193 2.5)"/>
</clipPath>
</defs>
</svg>
