<svg width="17" height="16" viewBox="0 0 17 16" fill="none" xmlns="http://www.w3.org/2000/svg">
<rect x="0.231934" width="16" height="16" rx="8" fill="white"/>
<path d="M11.2357 3.87793C11.1734 3.8473 11.1127 3.81372 11.054 3.77732C10.8831 3.66984 10.7264 3.5432 10.5873 3.40012C10.2392 3.02128 10.1093 2.63695 10.0614 2.36787H10.0633C10.0233 2.14451 10.0398 2 10.0423 2H8.45711V7.83134C8.45711 7.90963 8.45712 7.98701 8.45365 8.06348C8.45365 8.07299 8.45269 8.08177 8.45212 8.09201C8.45212 8.09622 8.45212 8.10061 8.45115 8.105V8.10829C8.43444 8.31752 8.36394 8.51964 8.24585 8.69686C8.12776 8.87408 7.96569 9.02098 7.77391 9.12464C7.57404 9.23281 7.34797 9.28955 7.11802 9.28927C6.37944 9.28927 5.78084 8.71634 5.78084 8.00878C5.78084 7.30122 6.37944 6.72829 7.11802 6.72829C7.25783 6.72817 7.39678 6.7491 7.52971 6.79031V5.30859C7.60222 4.87967 6.92156 4.95057 6.29762 5.21527C5.88332 5.39104 5.57445 5.63761 5.26262 5.88628C4.98939 6.11212 4.75969 6.38159 4.58384 6.68256C4.51693 6.79232 4.26445 7.23335 4.23388 7.94915C4.21465 8.35543 4.34291 8.77634 4.40405 8.95031V8.95396C4.44251 9.0564 4.59153 9.40598 4.8344 9.70067C5.03023 9.93706 5.2616 10.1447 5.52106 10.317V10.3133L5.5249 10.317C6.29233 10.813 7.14321 10.7805 7.14321 10.7805C7.2905 10.7748 7.78391 10.7805 8.34424 10.5279C8.96572 10.2478 9.31953 9.83055 9.31953 9.83055C9.54556 9.58123 9.7253 9.29711 9.85102 8.99037C9.99446 8.63165 10.0423 8.2014 10.0423 8.02945V4.93579C10.0616 4.94677 10.3177 5.10793 10.3177 5.10793C10.3177 5.10793 10.6867 5.33293 11.2624 5.47945C11.6755 5.58372 12.2319 5.60567 12.2319 5.60567V4.1086C12.037 4.12872 11.641 4.07018 11.2357 3.87793Z" fill="#333333"/>
<path d="M6.44238 5.89484C6.44238 5.40063 6.84301 5 7.33722 5C7.83142 5 8.23206 5.40063 8.23206 5.89484V12H6.44238V5.89484Z" fill="#333333"/>
<path d="M7.30926 14L5.15562 11.6585L9.46289 11.6585L7.30926 14Z" fill="#333333"/>
</svg>
